<svg xmlns="http://www.w3.org/2000/svg" xmlns:xlink="http://www.w3.org/1999/xlink" width="500" zoomAndPan="magnify" viewBox="0 0 375 374.999991" height="500" preserveAspectRatio="xMidYMid meet" version="1.0"><defs><g/></defs><g fill="#000000" fill-opacity="1"><g transform="translate(186.596792, 315.216355)"><g><path d="M -44.390625 18.796875 L -31.46875 -5.34375 L -27.640625 -4.703125 L -24.125 16.9375 L -13.640625 -2.3125 L -9.734375 -1.65625 L -5.53125 25.40625 L -9.296875 24.765625 L -12.671875 2.78125 L -23.421875 22.375 L -26.78125 21.796875 L -30.296875 -0.328125 L -40.921875 19.390625 Z M -44.390625 18.796875 "/></g></g></g><g fill="#000000" fill-opacity="1"><g transform="translate(148.266056, 307.903863)"><g><path d="M -23.28125 0.71875 C -23.164062 0.457031 -23.003906 0.132812 -22.796875 -0.25 L -8.09375 5.96875 C -7.613281 4.28125 -7.769531 2.695312 -8.5625 1.21875 C -9.351562 -0.25 -10.632812 -1.363281 -12.40625 -2.125 C -14.570312 -3.039062 -16.625 -3.046875 -18.5625 -2.140625 L -19.484375 -5.03125 C -18.253906 -5.632812 -16.925781 -5.925781 -15.5 -5.90625 C -14.070312 -5.894531 -12.609375 -5.570312 -11.109375 -4.9375 C -9.179688 -4.125 -7.640625 -3.007812 -6.484375 -1.59375 C -5.335938 -0.175781 -4.660156 1.40625 -4.453125 3.15625 C -4.242188 4.90625 -4.519531 6.671875 -5.28125 8.453125 C -6.019531 10.210938 -7.078125 11.628906 -8.453125 12.703125 C -9.835938 13.773438 -11.382812 14.410156 -13.09375 14.609375 C -14.800781 14.816406 -16.523438 14.554688 -18.265625 13.828125 C -19.992188 13.097656 -21.367188 12.050781 -22.390625 10.6875 C -23.410156 9.320312 -24.003906 7.773438 -24.171875 6.046875 C -24.347656 4.316406 -24.050781 2.539062 -23.28125 0.71875 Z M -17.109375 11.078125 C -15.535156 11.742188 -14.015625 11.816406 -12.546875 11.296875 C -11.085938 10.785156 -9.9375 9.796875 -9.09375 8.328125 L -20.71875 3.40625 C -21.1875 5.019531 -21.09375 6.535156 -20.4375 7.953125 C -19.789062 9.367188 -18.679688 10.410156 -17.109375 11.078125 Z M -17.109375 11.078125 "/></g></g></g><g fill="#000000" fill-opacity="1"><g transform="translate(129.104846, 300.106486)"><g><path d="M -22.375 9.203125 C -23.96875 8.160156 -25.171875 6.878906 -25.984375 5.359375 C -26.804688 3.835938 -27.164062 2.207031 -27.0625 0.46875 C -26.96875 -1.257812 -26.382812 -2.957031 -25.3125 -4.625 C -24.238281 -6.28125 -22.925781 -7.515625 -21.375 -8.328125 C -19.832031 -9.148438 -18.195312 -9.503906 -16.46875 -9.390625 C -14.738281 -9.285156 -13.078125 -8.710938 -11.484375 -7.671875 C -10.253906 -6.878906 -9.285156 -5.914062 -8.578125 -4.78125 C -7.867188 -3.644531 -7.472656 -2.40625 -7.390625 -1.0625 L -5.703125 -3.6875 L -2.828125 -1.828125 L -17.765625 21.3125 L -20.765625 19.375 L -14.890625 10.265625 C -16.117188 10.710938 -17.375 10.835938 -18.65625 10.640625 C -19.9375 10.441406 -21.175781 9.960938 -22.375 9.203125 Z M -12.921875 -4.90625 C -13.972656 -5.59375 -15.078125 -5.957031 -16.234375 -6 C -17.398438 -6.050781 -18.515625 -5.796875 -19.578125 -5.234375 C -20.640625 -4.671875 -21.539062 -3.816406 -22.28125 -2.671875 C -23.007812 -1.523438 -23.414062 -0.351562 -23.5 0.84375 C -23.582031 2.039062 -23.351562 3.148438 -22.8125 4.171875 C -22.28125 5.203125 -21.488281 6.0625 -20.4375 6.75 C -19.394531 7.414062 -18.289062 7.78125 -17.125 7.84375 C -15.96875 7.914062 -14.863281 7.664062 -13.8125 7.09375 C -12.757812 6.519531 -11.867188 5.660156 -11.140625 4.515625 C -10.398438 3.367188 -9.984375 2.203125 -9.890625 1.015625 C -9.796875 -0.171875 -10.015625 -1.285156 -10.546875 -2.328125 C -11.085938 -3.378906 -11.878906 -4.238281 -12.921875 -4.90625 Z M -12.921875 -4.90625 "/></g></g></g><g fill="#000000" fill-opacity="1"><g transform="translate(109.353271, 286.894957)"><g/></g></g><g fill="#000000" fill-opacity="1"><g transform="translate(102.478971, 281.867068)"><g><path d="M -35.125 2.515625 L -14.859375 -16.140625 L -12.546875 -13.640625 L -14.84375 -11.53125 C -13.5 -11.6875 -12.207031 -11.503906 -10.96875 -10.984375 C -9.738281 -10.472656 -8.628906 -9.679688 -7.640625 -8.609375 C -6.347656 -7.210938 -5.5 -5.671875 -5.09375 -3.984375 C -4.6875 -2.304688 -4.753906 -0.640625 -5.296875 1.015625 C -5.847656 2.671875 -6.851562 4.171875 -8.3125 5.515625 C -9.757812 6.847656 -11.328125 7.710938 -13.015625 8.109375 C -14.710938 8.503906 -16.378906 8.425781 -18.015625 7.875 C -19.648438 7.332031 -21.113281 6.363281 -22.40625 4.96875 C -23.351562 3.925781 -24.035156 2.785156 -24.453125 1.546875 C -24.867188 0.316406 -24.960938 -0.929688 -24.734375 -2.203125 L -32.703125 5.140625 Z M -10.125 -6.734375 C -10.957031 -7.640625 -11.929688 -8.269531 -13.046875 -8.625 C -14.171875 -8.976562 -15.3125 -9.003906 -16.46875 -8.703125 C -17.625 -8.410156 -18.707031 -7.800781 -19.71875 -6.875 C -20.707031 -5.957031 -21.394531 -4.9375 -21.78125 -3.8125 C -22.175781 -2.6875 -22.238281 -1.550781 -21.96875 -0.40625 C -21.707031 0.726562 -21.160156 1.75 -20.328125 2.65625 C -19.460938 3.582031 -18.476562 4.21875 -17.375 4.5625 C -16.28125 4.914062 -15.144531 4.953125 -13.96875 4.671875 C -12.800781 4.390625 -11.722656 3.789062 -10.734375 2.875 C -9.722656 1.945312 -9.03125 0.914062 -8.65625 -0.21875 C -8.28125 -1.363281 -8.210938 -2.503906 -8.453125 -3.640625 C -8.703125 -4.773438 -9.257812 -5.804688 -10.125 -6.734375 Z M -10.125 -6.734375 "/></g></g></g><g fill="#000000" fill-opacity="1"><g transform="translate(86.676082, 264.786671)"><g><path d="M -19.625 -12.53125 C -19.382812 -12.6875 -19.070312 -12.867188 -18.6875 -13.078125 L -10.046875 0.359375 C -8.710938 -0.765625 -7.953125 -2.15625 -7.765625 -3.8125 C -7.585938 -5.476562 -8.019531 -7.125 -9.0625 -8.75 C -10.332031 -10.726562 -12.019531 -11.894531 -14.125 -12.25 L -13.265625 -15.140625 C -11.898438 -14.953125 -10.628906 -14.445312 -9.453125 -13.625 C -8.285156 -12.8125 -7.257812 -11.71875 -6.375 -10.34375 C -5.25 -8.582031 -4.609375 -6.789062 -4.453125 -4.96875 C -4.304688 -3.15625 -4.640625 -1.46875 -5.453125 0.09375 C -6.273438 1.65625 -7.5 2.957031 -9.125 4 C -10.726562 5.03125 -12.40625 5.597656 -14.15625 5.703125 C -15.90625 5.816406 -17.539062 5.472656 -19.0625 4.671875 C -20.59375 3.878906 -21.867188 2.691406 -22.890625 1.109375 C -23.898438 -0.460938 -24.441406 -2.097656 -24.515625 -3.796875 C -24.597656 -5.503906 -24.21875 -7.117188 -23.375 -8.640625 C -22.539062 -10.171875 -21.289062 -11.46875 -19.625 -12.53125 Z M -20.375 -0.515625 C -19.445312 0.921875 -18.234375 1.84375 -16.734375 2.25 C -15.242188 2.65625 -13.734375 2.488281 -12.203125 1.75 L -19.03125 -8.875 C -20.320312 -7.8125 -21.097656 -6.507812 -21.359375 -4.96875 C -21.617188 -3.4375 -21.289062 -1.953125 -20.375 -0.515625 Z M -20.375 -0.515625 "/></g></g></g><g fill="#000000" fill-opacity="1"><g transform="translate(75.346251, 247.27687)"><g><path d="M -26.375 -11.109375 L -4.90625 -11.140625 L -3.4375 -7.8125 L -17.96875 8 L -19.46875 4.59375 L -7.75 -7.953125 L -24.96875 -7.90625 Z M -26.375 -11.109375 "/></g></g></g><g fill="#000000" fill-opacity="1"><g transform="translate(67.529881, 230.069319)"><g><path d="M -14.8125 -17.96875 C -14.539062 -18.039062 -14.191406 -18.109375 -13.765625 -18.171875 L -9.6875 -2.734375 C -8.050781 -3.390625 -6.890625 -4.484375 -6.203125 -6.015625 C -5.523438 -7.546875 -5.429688 -9.242188 -5.921875 -11.109375 C -6.523438 -13.378906 -7.773438 -15.007812 -9.671875 -16 L -7.953125 -18.484375 C -6.710938 -17.890625 -5.660156 -17.019531 -4.796875 -15.875 C -3.941406 -14.738281 -3.300781 -13.378906 -2.875 -11.796875 C -2.34375 -9.785156 -2.285156 -7.890625 -2.703125 -6.109375 C -3.117188 -4.335938 -3.957031 -2.832031 -5.21875 -1.59375 C -6.476562 -0.363281 -8.046875 0.5 -9.921875 1 C -11.765625 1.488281 -13.53125 1.515625 -15.21875 1.078125 C -16.914062 0.648438 -18.367188 -0.175781 -19.578125 -1.40625 C -20.796875 -2.632812 -21.644531 -4.160156 -22.125 -5.984375 C -22.601562 -7.796875 -22.613281 -9.519531 -22.15625 -11.15625 C -21.707031 -12.800781 -20.847656 -14.21875 -19.578125 -15.40625 C -18.316406 -16.601562 -16.726562 -17.457031 -14.8125 -17.96875 Z M -19.21875 -6.75 C -18.78125 -5.09375 -17.910156 -3.835938 -16.609375 -2.984375 C -15.316406 -2.140625 -13.832031 -1.84375 -12.15625 -2.09375 L -15.375 -14.296875 C -16.925781 -13.679688 -18.0625 -12.679688 -18.78125 -11.296875 C -19.507812 -9.910156 -19.65625 -8.394531 -19.21875 -6.75 Z M -19.21875 -6.75 "/></g></g></g><g fill="#000000" fill-opacity="1"><g transform="translate(62.369104, 209.435675)"><g><path d="M -27.75 0.484375 L -28.25 -3.046875 L -0.96875 -6.875 L -0.46875 -3.34375 Z M -27.75 0.484375 "/></g></g></g><g fill="#000000" fill-opacity="1"><g transform="translate(60.644786, 200.676533)"><g><path d="M 0.015625 -11.8125 C 0.046875 -9.851562 -0.351562 -8.082031 -1.1875 -6.5 C -2.03125 -4.925781 -3.203125 -3.6875 -4.703125 -2.78125 C -6.210938 -1.882812 -7.9375 -1.421875 -9.875 -1.390625 C -11.800781 -1.359375 -13.53125 -1.765625 -15.0625 -2.609375 C -16.601562 -3.460938 -17.8125 -4.660156 -18.6875 -6.203125 C -19.570312 -7.753906 -20.03125 -9.507812 -20.0625 -11.46875 C -20.09375 -13.414062 -19.691406 -15.171875 -18.859375 -16.734375 C -18.035156 -18.296875 -16.867188 -19.53125 -15.359375 -20.4375 C -13.859375 -21.34375 -12.144531 -21.8125 -10.21875 -21.84375 C -8.28125 -21.875 -6.539062 -21.460938 -5 -20.609375 C -3.46875 -19.753906 -2.253906 -18.5625 -1.359375 -17.03125 C -0.472656 -15.5 -0.015625 -13.757812 0.015625 -11.8125 Z M -3.09375 -11.765625 C -3.113281 -13.023438 -3.425781 -14.148438 -4.03125 -15.140625 C -4.632812 -16.128906 -5.460938 -16.894531 -6.515625 -17.4375 C -7.578125 -17.988281 -8.789062 -18.253906 -10.15625 -18.234375 C -11.507812 -18.210938 -12.707031 -17.90625 -13.75 -17.3125 C -14.800781 -16.726562 -15.601562 -15.929688 -16.15625 -14.921875 C -16.707031 -13.910156 -16.972656 -12.773438 -16.953125 -11.515625 C -16.929688 -10.242188 -16.625 -9.113281 -16.03125 -8.125 C -15.445312 -7.132812 -14.625 -6.359375 -13.5625 -5.796875 C -12.5 -5.234375 -11.289062 -4.960938 -9.9375 -4.984375 C -8.570312 -5.003906 -7.367188 -5.316406 -6.328125 -5.921875 C -5.285156 -6.523438 -4.476562 -7.332031 -3.90625 -8.34375 C -3.34375 -9.351562 -3.070312 -10.492188 -3.09375 -11.765625 Z M -3.09375 -11.765625 "/></g></g></g><g fill="#000000" fill-opacity="1"><g transform="translate(60.012968, 179.180028)"><g><path d="M -17.421875 -16.78125 C -17.128906 -18.664062 -16.445312 -20.285156 -15.375 -21.640625 C -14.3125 -22.992188 -12.96875 -23.972656 -11.34375 -24.578125 C -9.71875 -25.179688 -7.925781 -25.328125 -5.96875 -25.015625 C -4.007812 -24.703125 -2.34375 -24.003906 -0.96875 -22.921875 C 0.394531 -21.835938 1.367188 -20.484375 1.953125 -18.859375 C 2.546875 -17.242188 2.695312 -15.492188 2.40625 -13.609375 C 2.175781 -12.210938 1.703125 -10.972656 0.984375 -9.890625 C 0.265625 -8.816406 -0.675781 -7.957031 -1.84375 -7.3125 L 8.203125 -5.703125 L 7.640625 -2.1875 L -18.890625 -6.4375 L -18.34375 -9.828125 L -15.28125 -9.328125 C -16.21875 -10.285156 -16.867188 -11.40625 -17.234375 -12.6875 C -17.597656 -13.976562 -17.660156 -15.34375 -17.421875 -16.78125 Z M -0.71875 -13.796875 C -0.519531 -15.046875 -0.628906 -16.207031 -1.046875 -17.28125 C -1.460938 -18.363281 -2.144531 -19.273438 -3.09375 -20.015625 C -4.039062 -20.765625 -5.1875 -21.242188 -6.53125 -21.453125 C -7.863281 -21.671875 -9.097656 -21.570312 -10.234375 -21.15625 C -11.367188 -20.75 -12.296875 -20.097656 -13.015625 -19.203125 C -13.742188 -18.304688 -14.207031 -17.234375 -14.40625 -15.984375 C -14.601562 -14.765625 -14.492188 -13.613281 -14.078125 -12.53125 C -13.660156 -11.457031 -12.976562 -10.546875 -12.03125 -9.796875 C -11.09375 -9.054688 -9.957031 -8.578125 -8.625 -8.359375 C -7.28125 -8.148438 -6.039062 -8.242188 -4.90625 -8.640625 C -3.78125 -9.035156 -2.847656 -9.6875 -2.109375 -10.59375 C -1.378906 -11.507812 -0.914062 -12.578125 -0.71875 -13.796875 Z M -0.71875 -13.796875 "/></g></g></g><g fill="#000000" fill-opacity="1"><g transform="translate(63.619339, 156.192866)"><g><path d="M -2.328125 -23.171875 C -2.066406 -23.078125 -1.734375 -22.941406 -1.328125 -22.765625 L -6.515625 -7.65625 C -4.804688 -7.300781 -3.238281 -7.566406 -1.8125 -8.453125 C -0.394531 -9.335938 0.625 -10.691406 1.25 -12.515625 C 2.007812 -14.742188 1.875 -16.800781 0.84375 -18.6875 L 3.65625 -19.796875 C 4.351562 -18.597656 4.742188 -17.285156 4.828125 -15.859375 C 4.910156 -14.429688 4.6875 -12.945312 4.15625 -11.40625 C 3.476562 -9.4375 2.472656 -7.828125 1.140625 -6.578125 C -0.191406 -5.335938 -1.722656 -4.550781 -3.453125 -4.21875 C -5.179688 -3.894531 -6.960938 -4.050781 -8.796875 -4.6875 C -10.597656 -5.300781 -12.082031 -6.257812 -13.25 -7.5625 C -14.425781 -8.875 -15.175781 -10.375 -15.5 -12.0625 C -15.820312 -13.75 -15.675781 -15.484375 -15.0625 -17.265625 C -14.445312 -19.035156 -13.492188 -20.476562 -12.203125 -21.59375 C -10.921875 -22.71875 -9.421875 -23.421875 -7.703125 -23.703125 C -5.992188 -23.984375 -4.203125 -23.804688 -2.328125 -23.171875 Z M -12.21875 -16.296875 C -12.769531 -14.679688 -12.738281 -13.160156 -12.125 -11.734375 C -11.519531 -10.304688 -10.457031 -9.226562 -8.9375 -8.5 L -4.84375 -20.4375 C -6.46875 -20.78125 -7.960938 -20.578125 -9.328125 -19.828125 C -10.703125 -19.085938 -11.664062 -17.910156 -12.21875 -16.296875 Z M -12.21875 -16.296875 "/></g></g></g><g fill="#000000" fill-opacity="1"><g transform="translate(70.606543, 136.315245)"><g><path d="M -11.546875 -13.4375 C -12.285156 -14.507812 -12.644531 -15.71875 -12.625 -17.0625 C -12.613281 -18.414062 -12.21875 -19.863281 -11.4375 -21.40625 L -8.34375 -19.84375 C -8.46875 -19.6875 -8.609375 -19.457031 -8.765625 -19.15625 C -9.628906 -17.4375 -9.796875 -15.820312 -9.265625 -14.3125 C -8.742188 -12.800781 -7.53125 -11.566406 -5.625 -10.609375 L 3.125 -6.1875 L 1.515625 -3.015625 L -16.046875 -11.890625 L -14.5 -14.9375 Z M -11.546875 -13.4375 "/></g></g></g><g fill="#000000" fill-opacity="1"><g transform="translate(77.034025, 123.748018)"><g/></g></g><g fill="#000000" fill-opacity="1"><g transform="translate(81.896378, 115.96168)"><g><path d="M 2.640625 -3.3125 C 2.234375 -2.738281 1.691406 -2.390625 1.015625 -2.265625 C 0.347656 -2.148438 -0.289062 -2.3125 -0.90625 -2.75 C -1.488281 -3.164062 -1.828125 -3.710938 -1.921875 -4.390625 C -2.023438 -5.078125 -1.875 -5.707031 -1.46875 -6.28125 C -1.0625 -6.832031 -0.53125 -7.160156 0.125 -7.265625 C 0.78125 -7.378906 1.40625 -7.222656 2 -6.796875 C 2.613281 -6.359375 2.972656 -5.800781 3.078125 -5.125 C 3.179688 -4.457031 3.035156 -3.851562 2.640625 -3.3125 Z M 2.640625 -3.3125 "/></g></g></g><g fill="#000000" fill-opacity="1"><g transform="translate(86.310443, 109.746954)"><g/></g></g><g fill="#000000" fill-opacity="1"><g transform="translate(92.092325, 102.702484)"><g/></g></g><g fill="#000000" fill-opacity="1"><g transform="translate(96.845603, 95.995635)"><g><path d="M 22.375 -16.828125 L 10.96875 -31.9375 L 12.9375 -13.671875 L 11.578125 -12.65625 L -5.34375 -19.53125 L 5.96875 -4.484375 L 3.109375 -2.34375 L -12.515625 -23.109375 L -10.078125 -24.9375 L 9.578125 -16.859375 L 7.125 -37.875 L 9.5625 -39.703125 L 25.21875 -18.96875 Z M 22.375 -16.828125 "/></g></g></g><g fill="#000000" fill-opacity="1"><g transform="translate(123.453325, 76.523504)"><g><path d="M 1.140625 -22.453125 C 3.609375 -23.609375 5.78125 -23.882812 7.65625 -23.28125 C 9.53125 -22.6875 11.03125 -21.1875 12.15625 -18.78125 L 17.1875 -8.03125 L 14.125 -6.609375 L 13.03125 -8.953125 C 12.875 -7.878906 12.394531 -6.890625 11.59375 -5.984375 C 10.800781 -5.078125 9.722656 -4.300781 8.359375 -3.65625 C 6.367188 -2.726562 4.550781 -2.460938 2.90625 -2.859375 C 1.257812 -3.265625 0.0664062 -4.25 -0.671875 -5.8125 C -1.410156 -7.394531 -1.429688 -8.929688 -0.734375 -10.421875 C -0.0351562 -11.910156 1.554688 -13.238281 4.046875 -14.40625 L 9.15625 -16.796875 L 8.859375 -17.421875 C 8.210938 -18.816406 7.3125 -19.691406 6.15625 -20.046875 C 5 -20.410156 3.640625 -20.226562 2.078125 -19.5 C 1.015625 -19.007812 0.0625 -18.351562 -0.78125 -17.53125 C -1.625 -16.707031 -2.257812 -15.84375 -2.6875 -14.9375 L -5.171875 -16.71875 C -4.585938 -17.894531 -3.742188 -18.976562 -2.640625 -19.96875 C -1.546875 -20.957031 -0.285156 -21.785156 1.140625 -22.453125 Z M 7.734375 -6.421875 C 8.960938 -6.992188 9.894531 -7.765625 10.53125 -8.734375 C 11.175781 -9.703125 11.46875 -10.785156 11.40625 -11.984375 L 10.234375 -14.46875 L 5.25 -12.140625 C 2.53125 -10.859375 1.601562 -9.300781 2.46875 -7.46875 C 2.882812 -6.5625 3.554688 -6.015625 4.484375 -5.828125 C 5.421875 -5.640625 6.503906 -5.835938 7.734375 -6.421875 Z M 7.734375 -6.421875 "/></g></g></g><g fill="#000000" fill-opacity="1"><g transform="translate(141.833252, 67.808407)"><g><path d="M 11.546875 -3.109375 C 9.617188 -2.554688 7.78125 -2.472656 6.03125 -2.859375 C 4.28125 -3.253906 2.765625 -4.0625 1.484375 -5.28125 C 0.210938 -6.5 -0.691406 -8.035156 -1.234375 -9.890625 C -1.765625 -11.742188 -1.8125 -13.519531 -1.375 -15.21875 C -0.945312 -16.925781 -0.0976562 -18.410156 1.171875 -19.671875 C 2.441406 -20.929688 4.039062 -21.835938 5.96875 -22.390625 C 7.675781 -22.890625 9.300781 -22.988281 10.84375 -22.6875 C 12.394531 -22.382812 13.722656 -21.691406 14.828125 -20.609375 L 12.734375 -18.171875 C 11.867188 -18.890625 10.929688 -19.351562 9.921875 -19.5625 C 8.910156 -19.769531 7.867188 -19.71875 6.796875 -19.40625 C 5.554688 -19.039062 4.523438 -18.441406 3.703125 -17.609375 C 2.878906 -16.773438 2.332031 -15.769531 2.0625 -14.59375 C 1.789062 -13.425781 1.84375 -12.191406 2.21875 -10.890625 C 2.601562 -9.554688 3.222656 -8.460938 4.078125 -7.609375 C 4.929688 -6.765625 5.929688 -6.207031 7.078125 -5.9375 C 8.222656 -5.675781 9.414062 -5.726562 10.65625 -6.09375 C 11.726562 -6.40625 12.632812 -6.910156 13.375 -7.609375 C 14.113281 -8.316406 14.65625 -9.210938 15 -10.296875 L 18.078125 -9.40625 C 17.722656 -7.882812 16.972656 -6.578125 15.828125 -5.484375 C 14.679688 -4.398438 13.253906 -3.609375 11.546875 -3.109375 Z M 11.546875 -3.109375 "/></g></g></g><g fill="#000000" fill-opacity="1"><g transform="translate(160.215523, 62.144998)"><g><path d="M 11.53125 -21.3125 C 14.019531 -21.601562 16.078125 -21.113281 17.703125 -19.84375 C 19.328125 -18.570312 20.296875 -16.546875 20.609375 -13.765625 L 21.90625 -2.515625 L 18.359375 -2.109375 L 17.109375 -12.953125 C 16.898438 -14.835938 16.28125 -16.207031 15.25 -17.0625 C 14.226562 -17.925781 12.867188 -18.257812 11.171875 -18.0625 C 9.265625 -17.84375 7.820312 -17.109375 6.84375 -15.859375 C 5.863281 -14.617188 5.492188 -12.957031 5.734375 -10.875 L 6.890625 -0.796875 L 3.359375 -0.390625 L 0.21875 -27.75 L 3.75 -28.15625 L 4.96875 -17.578125 C 5.601562 -18.585938 6.484375 -19.421875 7.609375 -20.078125 C 8.742188 -20.734375 10.050781 -21.144531 11.53125 -21.3125 Z M 11.53125 -21.3125 "/></g></g></g><g fill="#000000" fill-opacity="1"><g transform="translate(183.816853, 59.816317)"><g><path d="M 3.640625 -19.625 L 7.203125 -19.578125 L 6.9375 0.09375 L 3.375 0.046875 Z M 5.484375 -23.390625 C 4.796875 -23.398438 4.222656 -23.628906 3.765625 -24.078125 C 3.316406 -24.535156 3.097656 -25.085938 3.109375 -25.734375 C 3.117188 -26.378906 3.351562 -26.925781 3.8125 -27.375 C 4.28125 -27.820312 4.859375 -28.039062 5.546875 -28.03125 C 6.242188 -28.019531 6.816406 -27.789062 7.265625 -27.34375 C 7.722656 -26.90625 7.945312 -26.367188 7.9375 -25.734375 C 7.925781 -25.066406 7.6875 -24.503906 7.21875 -24.046875 C 6.757812 -23.597656 6.179688 -23.378906 5.484375 -23.390625 Z M 5.484375 -23.390625 "/></g></g></g><g fill="#000000" fill-opacity="1"><g transform="translate(192.673909, 59.363157)"><g><path d="M 16.5625 -17.6875 C 19.039062 -17.332031 20.90625 -16.332031 22.15625 -14.6875 C 23.40625 -13.050781 23.832031 -10.851562 23.4375 -8.09375 L 21.828125 3.125 L 18.296875 2.609375 L 19.84375 -8.203125 C 20.113281 -10.078125 19.863281 -11.554688 19.09375 -12.640625 C 18.320312 -13.722656 17.085938 -14.390625 15.390625 -14.640625 C 13.484375 -14.910156 11.898438 -14.566406 10.640625 -13.609375 C 9.378906 -12.648438 8.601562 -11.128906 8.3125 -9.046875 L 6.875 0.984375 L 3.34375 0.484375 L 6.125 -18.984375 L 9.515625 -18.5 L 9.09375 -15.5625 C 9.945312 -16.476562 11.019531 -17.113281 12.3125 -17.46875 C 13.601562 -17.832031 15.019531 -17.90625 16.5625 -17.6875 Z M 16.5625 -17.6875 "/></g></g></g><g fill="#000000" fill-opacity="1"><g transform="translate(215.680927, 62.586226)"><g><path d="M 23.140625 -2.703125 C 23.046875 -2.441406 22.910156 -2.109375 22.734375 -1.703125 L 7.546875 -6.640625 C 7.222656 -4.921875 7.515625 -3.359375 8.421875 -1.953125 C 9.335938 -0.554688 10.710938 0.441406 12.546875 1.046875 C 14.773438 1.773438 16.820312 1.609375 18.6875 0.546875 L 19.84375 3.328125 C 18.675781 4.046875 17.378906 4.457031 15.953125 4.5625 C 14.523438 4.664062 13.035156 4.460938 11.484375 3.953125 C 9.503906 3.316406 7.878906 2.34375 6.609375 1.03125 C 5.335938 -0.28125 4.519531 -1.796875 4.15625 -3.515625 C 3.800781 -5.242188 3.925781 -7.03125 4.53125 -8.875 C 5.125 -10.6875 6.0625 -12.1875 7.34375 -13.375 C 8.632812 -14.570312 10.117188 -15.34375 11.796875 -15.6875 C 13.484375 -16.039062 15.222656 -15.925781 17.015625 -15.34375 C 18.796875 -14.769531 20.253906 -13.847656 21.390625 -12.578125 C 22.535156 -11.304688 23.265625 -9.8125 23.578125 -8.09375 C 23.898438 -6.382812 23.753906 -4.585938 23.140625 -2.703125 Z M 16.09375 -12.484375 C 14.46875 -13.015625 12.945312 -12.960938 11.53125 -12.328125 C 10.113281 -11.703125 9.050781 -10.617188 8.34375 -9.078125 L 20.34375 -5.171875 C 20.664062 -6.804688 20.441406 -8.300781 19.671875 -9.65625 C 18.910156 -11.019531 17.71875 -11.960938 16.09375 -12.484375 Z M 16.09375 -12.484375 "/></g></g></g><g fill="#000000" fill-opacity="1"><g transform="translate(235.82891, 69.447312)"><g/></g></g><g fill="#000000" fill-opacity="1"><g transform="translate(243.833223, 72.671759)"><g><path d="M 16.859375 -20.15625 L 20.03125 -18.21875 L 8.1875 1.203125 L 20.203125 8.53125 L 18.515625 11.296875 L 3.328125 2.03125 Z M 16.859375 -20.15625 "/></g></g></g><g fill="#000000" fill-opacity="1"><g transform="translate(261.125707, 83.002047)"><g><path d="M 22.390625 6.375 C 22.210938 6.582031 21.960938 6.835938 21.640625 7.140625 L 9.515625 -3.25 C 8.554688 -1.78125 8.226562 -0.222656 8.53125 1.421875 C 8.832031 3.078125 9.710938 4.53125 11.171875 5.78125 C 12.960938 7.3125 14.921875 7.941406 17.046875 7.671875 L 17.046875 10.703125 C 15.691406 10.910156 14.332031 10.789062 12.96875 10.34375 C 11.613281 9.894531 10.316406 9.140625 9.078125 8.078125 C 7.492188 6.710938 6.367188 5.179688 5.703125 3.484375 C 5.046875 1.785156 4.878906 0.0703125 5.203125 -1.65625 C 5.535156 -3.382812 6.332031 -4.984375 7.59375 -6.453125 C 8.832031 -7.898438 10.269531 -8.925781 11.90625 -9.53125 C 13.550781 -10.144531 15.21875 -10.285156 16.90625 -9.953125 C 18.601562 -9.628906 20.171875 -8.859375 21.609375 -7.640625 C 23.035156 -6.421875 24.023438 -5.003906 24.578125 -3.390625 C 25.140625 -1.785156 25.238281 -0.132812 24.875 1.5625 C 24.507812 3.269531 23.679688 4.875 22.390625 6.375 Z M 19.65625 -5.359375 C 18.351562 -6.460938 16.925781 -6.992188 15.375 -6.953125 C 13.820312 -6.910156 12.425781 -6.320312 11.1875 -5.1875 L 20.78125 3.03125 C 21.707031 1.644531 22.070312 0.179688 21.875 -1.359375 C 21.6875 -2.910156 20.945312 -4.242188 19.65625 -5.359375 Z M 19.65625 -5.359375 "/></g></g></g><g fill="#000000" fill-opacity="1"><g transform="translate(277.008871, 96.433083)"><g><path d="M 21.96875 -4.75 C 23.726562 -2.675781 24.566406 -0.65625 24.484375 1.3125 C 24.398438 3.289062 23.34375 5.132812 21.3125 6.84375 L 12.234375 14.5 L 10.0625 11.921875 L 12.046875 10.25 C 10.960938 10.382812 9.878906 10.179688 8.796875 9.640625 C 7.710938 9.109375 6.6875 8.265625 5.71875 7.109375 C 4.300781 5.429688 3.570312 3.742188 3.53125 2.046875 C 3.488281 0.347656 4.128906 -1.054688 5.453125 -2.171875 C 6.785156 -3.285156 8.257812 -3.695312 9.875 -3.40625 C 11.488281 -3.125 13.179688 -1.929688 14.953125 0.171875 L 18.59375 4.484375 L 19.140625 4.03125 C 20.304688 3.039062 20.914062 1.9375 20.96875 0.71875 C 21.019531 -0.488281 20.484375 -1.753906 19.359375 -3.078125 C 18.609375 -3.972656 17.722656 -4.71875 16.703125 -5.3125 C 15.691406 -5.914062 14.703125 -6.304688 13.734375 -6.484375 L 14.796875 -9.34375 C 16.078125 -9.082031 17.335938 -8.550781 18.578125 -7.75 C 19.816406 -6.957031 20.945312 -5.957031 21.96875 -4.75 Z M 8.21875 5.8125 C 9.09375 6.851562 10.078125 7.554688 11.171875 7.921875 C 12.265625 8.285156 13.382812 8.28125 14.53125 7.90625 L 16.640625 6.125 L 13.09375 1.921875 C 11.144531 -0.378906 9.394531 -0.875 7.84375 0.4375 C 7.082031 1.070312 6.734375 1.863281 6.796875 2.8125 C 6.859375 3.769531 7.332031 4.769531 8.21875 5.8125 Z M 8.21875 5.8125 "/></g></g></g><g fill="#000000" fill-opacity="1"><g transform="translate(290.177467, 112.240298)"><g><path d="M 17.453125 -3.046875 C 18.742188 -3.140625 19.96875 -2.832031 21.125 -2.125 C 22.28125 -1.414062 23.320312 -0.332031 24.25 1.125 L 21.328125 2.984375 C 21.253906 2.796875 21.125 2.554688 20.9375 2.265625 C 19.90625 0.640625 18.601562 -0.328125 17.03125 -0.640625 C 15.46875 -0.953125 13.785156 -0.535156 11.984375 0.609375 L 3.71875 5.859375 L 1.8125 2.84375 L 18.421875 -7.703125 L 20.25 -4.8125 Z M 17.453125 -3.046875 "/></g></g></g><g fill="#000000" fill-opacity="1"><g transform="translate(297.840857, 123.374516)"><g><path d="M 23.796875 4.578125 C 24.816406 6.859375 24.960938 8.960938 24.234375 10.890625 C 23.515625 12.828125 21.882812 14.363281 19.34375 15.5 L 9 20.125 L 7.546875 16.875 L 17.515625 12.421875 C 19.242188 11.640625 20.363281 10.628906 20.875 9.390625 C 21.382812 8.160156 21.289062 6.769531 20.59375 5.21875 C 19.8125 3.457031 18.675781 2.296875 17.1875 1.734375 C 15.707031 1.179688 14.003906 1.332031 12.078125 2.1875 L 2.828125 6.328125 L 1.375 3.078125 L 19.328125 -4.953125 L 20.734375 -1.828125 L 18.03125 -0.609375 C 19.25 -0.367188 20.351562 0.195312 21.34375 1.09375 C 22.34375 1.988281 23.160156 3.148438 23.796875 4.578125 Z M 23.796875 4.578125 "/></g></g></g><g fill="#000000" fill-opacity="1"><g transform="translate(307.175248, 145.17802)"><g><path d="M 19.8125 -2.4375 L 20.84375 0.96875 L 2 6.640625 L 0.96875 3.234375 Z M 23.953125 -1.828125 C 23.753906 -2.484375 23.800781 -3.09375 24.09375 -3.65625 C 24.394531 -4.21875 24.851562 -4.59375 25.46875 -4.78125 C 26.082031 -4.96875 26.675781 -4.910156 27.25 -4.609375 C 27.820312 -4.304688 28.207031 -3.828125 28.40625 -3.171875 C 28.601562 -2.503906 28.554688 -1.882812 28.265625 -1.3125 C 27.984375 -0.75 27.539062 -0.378906 26.9375 -0.203125 C 26.300781 -0.00390625 25.691406 -0.0546875 25.109375 -0.359375 C 24.535156 -0.671875 24.148438 -1.160156 23.953125 -1.828125 Z M 23.953125 -1.828125 "/></g></g></g><g fill="#000000" fill-opacity="1"><g transform="translate(310.279694, 153.483663)"><g><path d="M 21.859375 10.453125 C 22.273438 12.921875 21.890625 15 20.703125 16.6875 C 19.515625 18.375 17.539062 19.441406 14.78125 19.890625 L 3.609375 21.75 L 3.015625 18.234375 L 13.796875 16.453125 C 15.660156 16.140625 17 15.453125 17.8125 14.390625 C 18.625 13.328125 18.890625 11.957031 18.609375 10.28125 C 18.296875 8.375 17.492188 6.960938 16.203125 6.046875 C 14.910156 5.128906 13.222656 4.84375 11.140625 5.1875 L 1.140625 6.84375 L 0.546875 3.328125 L 19.953125 0.109375 L 20.515625 3.484375 L 17.59375 3.96875 C 18.707031 4.507812 19.632812 5.335938 20.375 6.453125 C 21.113281 7.578125 21.609375 8.910156 21.859375 10.453125 Z M 21.859375 10.453125 "/></g></g></g><g fill="#000000" fill-opacity="1"><g transform="translate(314.268651, 176.269106)"><g><path d="M 19.25 22.578125 L 2.25 22.25 C -1.1875 22.1875 -3.710938 21.285156 -5.328125 19.546875 C -6.941406 17.804688 -7.710938 15.238281 -7.640625 11.84375 C -7.609375 9.988281 -7.320312 8.222656 -6.78125 6.546875 C -6.25 4.878906 -5.5 3.535156 -4.53125 2.515625 L -1.828125 4.28125 C -2.640625 5.175781 -3.285156 6.296875 -3.765625 7.640625 C -4.253906 8.984375 -4.507812 10.367188 -4.53125 11.796875 C -4.570312 14.097656 -4.054688 15.8125 -2.984375 16.9375 C -1.921875 18.0625 -0.273438 18.644531 1.953125 18.6875 L 3.515625 18.71875 C 2.515625 17.851562 1.769531 16.800781 1.28125 15.5625 C 0.800781 14.332031 0.570312 13 0.59375 11.5625 C 0.632812 9.675781 1.070312 7.976562 1.90625 6.46875 C 2.738281 4.96875 3.882812 3.796875 5.34375 2.953125 C 6.8125 2.117188 8.472656 1.71875 10.328125 1.75 C 12.179688 1.789062 13.820312 2.253906 15.25 3.140625 C 16.6875 4.035156 17.785156 5.25 18.546875 6.78125 C 19.316406 8.320312 19.679688 10.035156 19.640625 11.921875 C 19.609375 13.398438 19.3125 14.769531 18.75 16.03125 C 18.1875 17.300781 17.359375 18.335938 16.265625 19.140625 L 19.3125 19.203125 Z M 3.71875 12.03125 C 3.6875 13.320312 3.929688 14.484375 4.453125 15.515625 C 4.984375 16.554688 5.726562 17.375 6.6875 17.96875 C 7.65625 18.570312 8.757812 18.882812 10 18.90625 C 11.90625 18.945312 13.457031 18.34375 14.65625 17.09375 C 15.863281 15.851562 16.488281 14.242188 16.53125 12.265625 C 16.5625 10.265625 16 8.617188 14.84375 7.328125 C 13.695312 6.046875 12.171875 5.382812 10.265625 5.34375 C 9.023438 5.320312 7.910156 5.59375 6.921875 6.15625 C 5.929688 6.726562 5.15625 7.519531 4.59375 8.53125 C 4.03125 9.550781 3.738281 10.71875 3.71875 12.03125 Z M 3.71875 12.03125 "/></g></g></g><g fill="#000000" fill-opacity="1"><g transform="translate(313.421211, 200.300317)"><g/></g></g><g fill="#000000" fill-opacity="1"><g transform="translate(312.727872, 208.802517)"><g><path d="M -3 22.78125 L -6.109375 21.90625 L -1.046875 3.75 L 23.984375 10.734375 L 19.046875 28.40625 L 15.921875 27.53125 L 19.859375 13.4375 L 12.1875 11.296875 L 8.6875 23.84375 L 5.65625 23 L 9.15625 10.453125 L 1.0625 8.203125 Z M -3 22.78125 "/></g></g></g><g fill="#000000" fill-opacity="1"><g transform="translate(306.816457, 230.770431)"><g><path d="M 11.78125 21.171875 C 10.6875 23.421875 9.164062 24.890625 7.21875 25.578125 C 5.28125 26.265625 3.054688 26 0.546875 24.78125 L -9.640625 19.828125 L -8.078125 16.625 L 1.75 21.40625 C 3.445312 22.226562 4.929688 22.441406 6.203125 22.046875 C 7.484375 21.648438 8.492188 20.679688 9.234375 19.140625 C 10.078125 17.410156 10.234375 15.796875 9.703125 14.296875 C 9.179688 12.796875 7.976562 11.585938 6.09375 10.671875 L -3.03125 6.234375 L -1.46875 3.03125 L 16.21875 11.640625 L 14.71875 14.71875 L 12.046875 13.40625 C 12.660156 14.5 12.941406 15.71875 12.890625 17.0625 C 12.835938 18.40625 12.46875 19.773438 11.78125 21.171875 Z M 11.78125 21.171875 "/></g></g></g><g fill="#000000" fill-opacity="1"><g transform="translate(296.890634, 251.666563)"><g><path d="M 2.640625 29.546875 L -11.03125 19.46875 C -13.800781 17.425781 -15.335938 15.226562 -15.640625 12.875 C -15.953125 10.519531 -15.097656 7.972656 -13.078125 5.234375 C -11.984375 3.742188 -10.734375 2.472656 -9.328125 1.421875 C -7.921875 0.367188 -6.53125 -0.289062 -5.15625 -0.5625 L -3.96875 2.4375 C -5.144531 2.695312 -6.316406 3.234375 -7.484375 4.046875 C -8.660156 4.859375 -9.671875 5.84375 -10.515625 7 C -11.878906 8.84375 -12.453125 10.53125 -12.234375 12.0625 C -12.015625 13.601562 -11.007812 15.035156 -9.21875 16.359375 L -7.953125 17.296875 C -8.265625 16.015625 -8.265625 14.726562 -7.953125 13.4375 C -7.640625 12.15625 -7.054688 10.9375 -6.203125 9.78125 C -5.078125 8.257812 -3.738281 7.125 -2.1875 6.375 C -0.632812 5.632812 0.976562 5.34375 2.65625 5.5 C 4.332031 5.664062 5.921875 6.300781 7.421875 7.40625 C 8.910156 8.5 9.976562 9.820312 10.625 11.375 C 11.269531 12.9375 11.460938 14.566406 11.203125 16.265625 C 10.941406 17.960938 10.25 19.570312 9.125 21.09375 C 8.25 22.28125 7.210938 23.222656 6.015625 23.921875 C 4.828125 24.628906 3.554688 25 2.203125 25.03125 L 4.65625 26.828125 Z M -3.921875 11.96875 C -4.691406 13 -5.164062 14.085938 -5.34375 15.234375 C -5.519531 16.378906 -5.382812 17.476562 -4.9375 18.53125 C -4.488281 19.582031 -3.765625 20.476562 -2.765625 21.21875 C -1.234375 22.34375 0.378906 22.742188 2.078125 22.421875 C 3.773438 22.109375 5.210938 21.15625 6.390625 19.5625 C 7.578125 17.945312 8.070312 16.28125 7.875 14.5625 C 7.675781 12.851562 6.8125 11.4375 5.28125 10.3125 C 4.28125 9.570312 3.210938 9.144531 2.078125 9.03125 C 0.941406 8.914062 -0.144531 9.109375 -1.1875 9.609375 C -2.226562 10.117188 -3.140625 10.90625 -3.921875 11.96875 Z M -3.921875 11.96875 "/></g></g></g><g fill="#000000" fill-opacity="1"><g transform="translate(282.309707, 270.773122)"><g><path d="M 11.84375 16.0625 L 9.390625 18.625 L -4.796875 5 L -2.34375 2.4375 Z M 13.359375 19.96875 C 13.835938 19.46875 14.394531 19.207031 15.03125 19.1875 C 15.664062 19.164062 16.21875 19.378906 16.6875 19.828125 C 17.144531 20.273438 17.378906 20.820312 17.390625 21.46875 C 17.410156 22.113281 17.179688 22.6875 16.703125 23.1875 C 16.222656 23.6875 15.664062 23.953125 15.03125 23.984375 C 14.394531 24.015625 13.847656 23.804688 13.390625 23.359375 C 12.910156 22.898438 12.664062 22.34375 12.65625 21.6875 C 12.644531 21.039062 12.878906 20.46875 13.359375 19.96875 Z M 13.359375 19.96875 "/></g></g></g><g fill="#000000" fill-opacity="1"><g transform="translate(276.601377, 277.554608)"><g><path d="M 1.625 24.171875 C -0.3125 25.742188 -2.304688 26.425781 -4.359375 26.21875 C -6.410156 26.019531 -8.3125 24.832031 -10.0625 22.65625 L -17.171875 13.828125 L -14.40625 11.59375 L -7.5625 20.109375 C -6.375 21.578125 -5.113281 22.398438 -3.78125 22.578125 C -2.457031 22.753906 -1.132812 22.3125 0.1875 21.25 C 1.6875 20.039062 2.519531 18.644531 2.6875 17.0625 C 2.851562 15.488281 2.273438 13.882812 0.953125 12.25 L -5.40625 4.34375 L -2.625 2.109375 L 9.703125 17.4375 L 7.03125 19.59375 L 5.171875 17.28125 C 5.253906 18.519531 4.988281 19.734375 4.375 20.921875 C 3.757812 22.109375 2.84375 23.191406 1.625 24.171875 Z M 1.625 24.171875 "/></g></g></g><g fill="#000000" fill-opacity="1"><g transform="translate(258.541147, 292.174306)"><g><path d="M -13.8125 18.75 C -13.945312 18.507812 -14.097656 18.1875 -14.265625 17.78125 L -0.296875 10.0625 C -1.328125 8.644531 -2.664062 7.789062 -4.3125 7.5 C -5.957031 7.207031 -7.625 7.523438 -9.3125 8.453125 C -11.375 9.597656 -12.65625 11.207031 -13.15625 13.28125 L -15.984375 12.21875 C -15.703125 10.882812 -15.113281 9.660156 -14.21875 8.546875 C -13.320312 7.429688 -12.160156 6.476562 -10.734375 5.6875 C -8.910156 4.675781 -7.085938 4.15625 -5.265625 4.125 C -3.441406 4.09375 -1.773438 4.535156 -0.265625 5.453125 C 1.234375 6.367188 2.453125 7.671875 3.390625 9.359375 C 4.304688 11.023438 4.765625 12.738281 4.765625 14.5 C 4.765625 16.257812 4.316406 17.875 3.421875 19.34375 C 2.523438 20.8125 1.25 22 -0.40625 22.90625 C -2.039062 23.8125 -3.707031 24.25 -5.40625 24.21875 C -7.113281 24.1875 -8.703125 23.695312 -10.171875 22.75 C -11.640625 21.8125 -12.851562 20.476562 -13.8125 18.75 Z M -1.859375 20.28125 C -0.359375 19.457031 0.640625 18.3125 1.140625 16.84375 C 1.640625 15.375 1.570312 13.859375 0.9375 12.296875 L -10.109375 18.40625 C -9.140625 19.75 -7.894531 20.601562 -6.375 20.96875 C -4.851562 21.34375 -3.347656 21.113281 -1.859375 20.28125 Z M -1.859375 20.28125 "/></g></g></g><g fill="#000000" fill-opacity="1"><g transform="translate(240.431385, 302.369081)"><g><path d="M -16.671875 16.265625 C -16.765625 16.003906 -16.863281 15.65625 -16.96875 15.21875 L -1.921875 9.875 C -2.710938 8.3125 -3.894531 7.25 -5.46875 6.6875 C -7.050781 6.132812 -8.753906 6.179688 -10.578125 6.828125 C -12.796875 7.609375 -14.316406 8.992188 -15.140625 10.984375 L -17.75 9.46875 C -17.257812 8.1875 -16.484375 7.066406 -15.421875 6.109375 C -14.359375 5.160156 -13.054688 4.410156 -11.515625 3.859375 C -9.554688 3.160156 -7.675781 2.941406 -5.875 3.203125 C -4.070312 3.472656 -2.5 4.179688 -1.15625 5.328125 C 0.1875 6.484375 1.179688 7.976562 1.828125 9.8125 C 2.460938 11.601562 2.632812 13.359375 2.34375 15.078125 C 2.050781 16.804688 1.34375 18.328125 0.21875 19.640625 C -0.894531 20.953125 -2.34375 21.921875 -4.125 22.546875 C -5.882812 23.179688 -7.601562 23.335938 -9.28125 23.015625 C -10.957031 22.703125 -12.441406 21.960938 -13.734375 20.796875 C -15.035156 19.640625 -16.015625 18.128906 -16.671875 16.265625 Z M -5.125 19.71875 C -3.507812 19.144531 -2.332031 18.171875 -1.59375 16.796875 C -0.863281 15.429688 -0.6875 13.925781 -1.0625 12.28125 L -12.953125 16.515625 C -12.210938 18.003906 -11.125 19.050781 -9.6875 19.65625 C -8.25 20.269531 -6.726562 20.289062 -5.125 19.71875 Z M -5.125 19.71875 "/></g></g></g><g fill="#000000" fill-opacity="1"><g transform="translate(220.531362, 309.293677)"><g><path d="M -3.3125 17.421875 C -3.6875 18.660156 -4.40625 19.691406 -5.46875 20.515625 C -6.539062 21.335938 -7.921875 21.925781 -9.609375 22.28125 L -10.3125 18.90625 C -10.113281 18.894531 -9.84375 18.851562 -9.5 18.78125 C -7.613281 18.394531 -6.25 17.523438 -5.40625 16.171875 C -4.5625 14.816406 -4.359375 13.09375 -4.796875 11 L -6.796875 1.40625 L -3.296875 0.6875 L 0.71875 19.953125 L -2.640625 20.65625 Z M -3.3125 17.421875 "/></g></g></g><g fill="#000000" fill-opacity="1"><g transform="translate(206.704171, 312.103178)"><g/></g></g><g fill="#000000" fill-opacity="1"><g transform="translate(197.585175, 313.153964)"><g><path d="M -4.25 -0.015625 C -3.550781 -0.046875 -2.941406 0.160156 -2.421875 0.609375 C -1.898438 1.066406 -1.625 1.671875 -1.59375 2.421875 C -1.550781 3.140625 -1.765625 3.75 -2.234375 4.25 C -2.710938 4.757812 -3.300781 5.03125 -4 5.0625 C -4.6875 5.09375 -5.273438 4.882812 -5.765625 4.4375 C -6.253906 4 -6.519531 3.410156 -6.5625 2.671875 C -6.59375 1.921875 -6.378906 1.289062 -5.921875 0.78125 C -5.472656 0.28125 -4.914062 0.015625 -4.25 -0.015625 Z M -4.25 -0.015625 "/></g></g></g></svg>